<?xml version="1.0" encoding="utf-8"?>
<!-- Generator: Adobe Illustrator 16.0.0, SVG Export Plug-In . SVG Version: 6.00 Build 0)  -->
<svg version="1.2" baseProfile="tiny" id="Layer_1" xmlns="http://www.w3.org/2000/svg" xmlns:xlink="http://www.w3.org/1999/xlink"
	 x="0px" y="0px" width="280px" height="280px" viewBox="0 0 280 280" xml:space="preserve">
<path display="none" d="M248.359,165.48l-41.159-15.4v-13.44c15.96-2.8,28-16.52,28-33.04s-12.04-30.52-28-33.04V70.5
	c-3.578,0-7.717,0-11.2,0v0.06c-15.96,2.8-28,16.52-28,33.04s12.04,30.52,28,33.04v13.44l-41.16,15.4
	c-2.8,1.119-4.48,4.199-3.359,7.279c0.84,2.24,3.08,3.641,5.319,3.641c0.56,0,1.4,0,1.96-0.28l37.24-14v45.92l-26.6,31.92
	c-1.961,2.24-1.68,5.88,0.84,7.84c1.119,0.841,2.24,1.4,3.64,1.4c1.681,0,3.08-0.56,4.2-1.96l23.52-28.561L225.4,247.24
	c1.119,1.4,2.8,1.96,4.199,1.96c1.4,0,2.521-0.56,3.641-1.4c2.24-1.96,2.8-5.6,0.84-7.84l-26.88-31.92v-45.92l37.239,14
	c0.561,0.28,1.4,0.28,1.961,0.28c2.24,0,4.479-1.4,5.32-3.641C252.84,169.96,251.16,166.6,248.359,165.48z M201.6,126
	c-12.32,0-22.399-10.08-22.399-22.4c0-12.32,10.079-22.4,22.399-22.4S224,91.28,224,103.6C224,115.92,213.92,126,201.6,126z"/>
<path d="M207.2,19.6c0-3.08-2.521-5.6-5.601-5.6H67.2c-3.08,0-5.6,2.52-5.6,5.6v235.2h-28c-3.08,0-5.6,2.521-5.6,5.601
	s2.52,5.6,5.6,5.6h67.2c3.08,0,5.6-2.52,5.6-5.6s-2.52-5.601-5.6-5.601h-28V77.84l52.64-52.64H196v45.3c3.483,0,7.622,0,11.2,0V19.6
	z M72.8,62.16V25.2h36.96L72.8,62.16z"/>
</svg>
