<?xml version="1.0" encoding="utf-8"?>
<!-- Generator: Adobe Illustrator 16.0.0, SVG Export Plug-In . SVG Version: 6.00 Build 0)  -->
<svg version="1.2" baseProfile="tiny" id="Layer_1" xmlns="http://www.w3.org/2000/svg" xmlns:xlink="http://www.w3.org/1999/xlink"
	 x="0px" y="0px" width="280px" height="280px" viewBox="0 0 280 280" xml:space="preserve">
<path d="M207.2,19.6c0-3.08-2.521-5.6-5.601-5.6H67.2c-3.08,0-5.6,2.52-5.6,5.6v235.2h-28c-3.08,0-5.6,2.521-5.6,5.601
	s2.52,5.6,5.6,5.6h67.2c3.08,0,5.6-2.52,5.6-5.6s-2.52-5.601-5.6-5.601h-28V77.84l52.64-52.64H196v45.3c3.483,0,7.622,0,11.2,0V19.6
	z M72.8,62.16V25.2h36.96L72.8,62.16z"/>
<g>
	<path fill="none" d="M224,103.6c0-12.32-10.08-22.4-22.4-22.4S179.2,91.28,179.2,103.6c0,12.32,10.079,22.4,22.399,22.4
		S224,115.92,224,103.6z"/>
	<path d="M201.6,137.125c1.909,0,3.778-0.168,5.601-0.476v-0.009c6.93-1.216,13.118-4.492,17.905-9.161
		c0.041-0.041,0.086-0.08,0.127-0.121c0.061-0.06,0.117-0.122,0.177-0.182c5.977-6.047,9.67-14.356,9.67-23.53
		c0-16.901-12.526-30.869-28.8-33.146c-3.039,0-6.383,0-9.359,0c-16.272,2.277-28.799,16.245-28.799,33.146
		c0,16.084,11.344,29.513,26.465,32.737c0.468,0.095,0.939,0.182,1.414,0.257v0.01C197.822,136.957,199.69,137.125,201.6,137.125z
		 M179.2,103.6c0-12.32,10.079-22.4,22.399-22.4S224,91.28,224,103.6c0,12.32-10.08,22.4-22.4,22.4S179.2,115.92,179.2,103.6z"/>
</g>
</svg>
